<?xml version="1.0" encoding="UTF-8" standalone="no"?>
<!-- Created with Inkscape (http://www.inkscape.org/) -->

<svg
   xmlns:dc="http://purl.org/dc/elements/1.1/"
   xmlns:cc="http://creativecommons.org/ns#"
   xmlns:rdf="http://www.w3.org/1999/02/22-rdf-syntax-ns#"
   xmlns:svg="http://www.w3.org/2000/svg"
   xmlns="http://www.w3.org/2000/svg"
   xmlns:sodipodi="http://sodipodi.sourceforge.net/DTD/sodipodi-0.dtd"
   xmlns:inkscape="http://www.inkscape.org/namespaces/inkscape"
   width="810"
   height="200"
   viewBox="0 0 214.3125 52.91667"
   version="1.1"
   id="svg8"
   inkscape:version="0.92.4 (5da689c313, 2019-01-14)"
   sodipodi:docname="memory_model_length.svg">
  <defs
     id="defs2" />
  <sodipodi:namedview
     id="base"
     pagecolor="#ffffff"
     bordercolor="#666666"
     borderopacity="1.0"
     inkscape:pageopacity="0.0"
     inkscape:pageshadow="2"
     inkscape:zoom="2.8"
     inkscape:cx="505.80309"
     inkscape:cy="135.48007"
     inkscape:document-units="mm"
     inkscape:current-layer="layer1"
     showgrid="false"
     units="px"
     inkscape:window-width="1920"
     inkscape:window-height="1046"
     inkscape:window-x="-11"
     inkscape:window-y="-11"
     inkscape:window-maximized="1" />
  <metadata
     id="metadata5">
    <rdf:RDF>
      <cc:Work
         rdf:about="">
        <dc:format>image/svg+xml</dc:format>
        <dc:type
           rdf:resource="http://purl.org/dc/dcmitype/StillImage" />
        <dc:title />
      </cc:Work>
    </rdf:RDF>
  </metadata>
  <g
     inkscape:label="Layer 1"
     inkscape:groupmode="layer"
     id="layer1"
     transform="translate(0,-244.08331)">
    <rect
       style="opacity:0;fill:#000000;fill-opacity:1;stroke:#000000;stroke-width:10.47617722;stroke-linejoin:bevel;stroke-miterlimit:4;stroke-dasharray:none"
       id="rect817"
       width="66.523811"
       height="43.089287"
       x="60.476189"
       y="222.16071" />
    <rect
       style="opacity:0;fill:#000000;fill-opacity:1;stroke:#000000;stroke-width:10.47617722;stroke-linejoin:round;stroke-miterlimit:4;stroke-dasharray:none;paint-order:stroke markers fill"
       id="rect819"
       width="95.25"
       height="39.30954"
       x="31.75"
       y="225.94046"
       ry="2.6458347" />
    <rect
       style="opacity:1;fill:none;fill-opacity:1;stroke:#000000;stroke-width:2.07688046;stroke-linejoin:miter;stroke-miterlimit:4;stroke-dasharray:none;stroke-opacity:1;paint-order:stroke markers fill"
       id="rect823"
       width="212.23563"
       height="50.839783"
       x="1.0384402"
       y="245.12175" />
    <path
       style="font-style:normal;font-weight:normal;font-size:10.58333302px;line-height:1.25;font-family:sans-serif;letter-spacing:0px;word-spacing:0px;fill:#000000;fill-opacity:1;stroke:none;stroke-width:0.26458332"
       d="m 6.301424,265.42878 v 8.04085 h 0.9095052 l 0.062012,-0.26871 c 0.2377117,0.13091 0.4788683,0.23426 0.7234701,0.31006 0.2446017,0.0792 0.5305448,0.11885 0.8578289,0.11885 0.3513997,0 0.6735161,-0.0672 0.9663493,-0.20154 0.2928325,-0.1378 0.5615505,-0.34279 0.8061515,-0.61495 0.230822,-0.26183 0.413412,-0.58566 0.547771,-0.97152 0.137803,-0.38585 0.206705,-0.81993 0.206705,-1.30224 0,-0.95429 -0.198093,-1.69327 -0.594279,-2.21692 -0.392741,-0.52365 -0.9301752,-0.78548 -1.6123041,-0.78548 -0.3824055,0 -0.7269152,0.0723 -1.0335286,0.21704 -0.3066135,0.14125 -0.5960015,0.32384 -0.8681641,0.54777 v -2.87321 z m 6.593913,0 v 8.04085 h 0.971517 v -4.30981 c 0.265272,-0.20326 0.542602,-0.37035 0.83199,-0.50126 0.289388,-0.13092 0.566719,-0.19637 0.831991,-0.19637 0.258382,0 0.468533,0.0362 0.630452,0.10852 0.16192,0.0689 0.285943,0.1757 0.37207,0.32039 0.08268,0.13091 0.139527,0.3135 0.170533,0.54777 0.03101,0.23082 0.04651,0.47887 0.04651,0.74414 v 3.28662 h 0.971517 v -3.74654 c 0,-0.70624 -0.163643,-1.24712 -0.490927,-1.62264 -0.327284,-0.37551 -0.802707,-0.56327 -1.426269,-0.56327 -0.341064,0 -0.673516,0.0706 -0.997355,0.21187 -0.323839,0.14125 -0.637343,0.33762 -0.940511,0.58911 v -2.90938 z m 28.726928,2.1084 c -0.341064,0 -0.673515,0.0706 -0.997355,0.21187 -0.323839,0.14125 -0.637344,0.33762 -0.940511,0.58911 v -0.64078 h -0.971516 v 5.77225 h 0.971516 v -4.30981 c 0.265273,-0.20326 0.542602,-0.37035 0.83199,-0.50126 0.289388,-0.13092 0.566719,-0.19637 0.83199,-0.19637 0.258384,0 0.468535,0.0362 0.630454,0.10852 0.16192,0.0689 0.285944,0.1757 0.372071,0.32039 0.08268,0.13091 0.139525,0.3135 0.170532,0.54777 0.031,0.23082 0.04651,0.47887 0.04651,0.74414 v 3.28662 h 0.971516 v -3.74654 c 0,-0.70624 -0.163642,-1.24712 -0.490927,-1.62264 -0.327281,-0.37551 -0.802706,-0.56327 -1.426268,-0.56327 z m 13.435872,0 c -0.341063,0 -0.673515,0.0706 -0.997354,0.21187 -0.32384,0.14125 -0.637345,0.33762 -0.940512,0.58911 v -0.64078 h -0.971516 v 5.77225 h 0.971516 v -4.30981 c 0.265274,-0.20326 0.542602,-0.37035 0.83199,-0.50126 0.289388,-0.13092 0.566719,-0.19637 0.83199,-0.19637 0.258384,0 0.468535,0.0362 0.630455,0.10852 0.161919,0.0689 0.285943,0.1757 0.37207,0.32039 0.08268,0.13091 0.139525,0.3135 0.170532,0.54777 0.031,0.23082 0.04651,0.47887 0.04651,0.74414 v 3.28662 h 0.971516 v -3.74654 c 0,-0.70624 -0.163642,-1.24712 -0.490924,-1.62264 -0.327284,-0.37551 -0.802709,-0.56327 -1.426271,-0.56327 z m 12.996622,0 c -0.341064,0 -0.663181,0.0706 -0.966348,0.21187 -0.299723,0.14125 -0.601171,0.33762 -0.904338,0.58911 v -0.64078 h -0.971516 v 5.77225 h 0.971516 v -4.30981 c 0.265274,-0.20326 0.530545,-0.37035 0.795816,-0.50126 0.268719,-0.13092 0.535713,-0.19637 0.800986,-0.19637 0.279051,0 0.492649,0.0379 0.640787,0.11368 0.14814,0.0724 0.261829,0.1826 0.341064,0.33073 0.07235,0.13781 0.118856,0.32212 0.139528,0.55294 0.0241,0.22738 0.03617,0.46853 0.03617,0.72347 v 3.28662 h 0.971515 v -3.69486 c 0,-0.10335 -0.0034,-0.20671 -0.01035,-0.31006 -0.0069,-0.1068 -0.01551,-0.19982 -0.02585,-0.27905 0.272164,-0.21015 0.544327,-0.38241 0.816488,-0.51677 0.272164,-0.1378 0.544325,-0.2067 0.816489,-0.2067 0.279053,0 0.492649,0.0379 0.640786,0.11368 0.14814,0.0758 0.261829,0.18776 0.341067,0.3359 0.07234,0.13781 0.118856,0.32212 0.139525,0.55294 0.02413,0.23082 0.03617,0.47025 0.03617,0.7183 v 3.28662 h 0.971515 v -3.74654 c 0,-0.68902 -0.151582,-1.22473 -0.454752,-1.60714 -0.299723,-0.38585 -0.766533,-0.57877 -1.400429,-0.57877 -0.368626,0 -0.714859,0.0741 -1.038699,0.22221 -0.323837,0.14469 -0.682127,0.3824 -1.07487,0.71313 -0.134358,-0.29283 -0.339341,-0.52193 -0.614947,-0.68729 -0.272163,-0.16537 -0.604615,-0.24805 -0.997357,-0.24805 z m 9.84953,0 c -0.840605,0 -1.519288,0.27733 -2.036054,0.83199 -0.513318,0.55466 -0.769977,1.30397 -0.769977,2.24792 0,0.9543 0.268716,1.69155 0.806151,2.21175 0.537435,0.51677 1.285021,0.77515 2.242759,0.77515 0.375515,0 0.733804,-0.0465 1.07487,-0.13952 0.341064,-0.093 0.675238,-0.20843 1.002522,-0.34624 v -1.05936 h -0.05168 c -0.16881,0.15158 -0.453028,0.30661 -0.85266,0.46508 -0.396187,0.15503 -0.790649,0.23255 -1.183391,0.23255 -0.296278,0 -0.568441,-0.0413 -0.816486,-0.12403 -0.244602,-0.0827 -0.456477,-0.2067 -0.635621,-0.37207 -0.186034,-0.16881 -0.332452,-0.38412 -0.439248,-0.64595 -0.106799,-0.26527 -0.160198,-0.57533 -0.160198,-0.93018 h 4.252968 v -0.5271 c 3e-6,-0.83715 -0.211873,-1.48311 -0.635619,-1.93786 -0.420301,-0.45476 -1.019749,-0.68213 -1.798338,-0.68213 z m -43.583905,0.0207 c -0.347953,0 -0.701077,0.031 -1.059365,0.093 -0.358291,0.062 -0.632177,0.11885 -0.821655,0.17053 v 0.98702 h 0.05168 c 0.334174,-0.12747 0.658014,-0.22393 0.971519,-0.28939 0.313502,-0.0689 0.597722,-0.10335 0.852659,-0.10335 0.210151,0 0.411689,0.0138 0.604615,0.0413 0.192926,0.0276 0.358291,0.081 0.496094,0.1602 0.144693,0.0827 0.254937,0.19637 0.330729,0.34106 0.07924,0.1447 0.118856,0.32729 0.118856,0.54777 v 0.14986 c -0.564996,0.0276 -1.093819,0.0689 -1.586468,0.12403 -0.492649,0.0551 -0.914672,0.16019 -1.266071,0.31522 -0.347956,0.15503 -0.616672,0.36863 -0.806153,0.64079 -0.186034,0.26872 -0.279051,0.62184 -0.279051,1.05937 0,0.53399 0.180866,0.97324 0.542602,1.31775 0.361733,0.34451 0.802706,0.51676 1.322917,0.51676 0.282495,0 0.52882,-0.0276 0.73897,-0.0827 0.210154,-0.0517 0.396187,-0.11713 0.558107,-0.19637 0.137803,-0.062 0.279054,-0.14469 0.423746,-0.24805 0.14814,-0.1068 0.265274,-0.18948 0.351401,-0.24804 v 0.61495 h 0.966349 v -3.91708 c 0,-0.37207 -0.05684,-0.68385 -0.170532,-0.93534 -0.113689,-0.2515 -0.279054,-0.45648 -0.496094,-0.61495 -0.220485,-0.16192 -0.482314,-0.27561 -0.785482,-0.34107 -0.299722,-0.0689 -0.652846,-0.10335 -1.059368,-0.10335 z m 26.499674,0 c -0.347953,0 -0.701077,0.031 -1.059365,0.093 -0.358291,0.062 -0.632177,0.11885 -0.821655,0.17053 v 0.98702 h 0.05168 c 0.334174,-0.12747 0.658014,-0.22393 0.971519,-0.28939 0.313502,-0.0689 0.597723,-0.10335 0.852659,-0.10335 0.210151,0 0.411689,0.0138 0.604615,0.0413 0.192927,0.0276 0.358291,0.081 0.496094,0.1602 0.144693,0.0827 0.254937,0.19637 0.330729,0.34106 0.07924,0.1447 0.118856,0.32729 0.118856,0.54777 v 0.14986 c -0.564996,0.0276 -1.093819,0.0689 -1.586468,0.12403 -0.492649,0.0551 -0.914672,0.16019 -1.266071,0.31522 -0.347956,0.15503 -0.616672,0.36863 -0.806153,0.64079 -0.186034,0.26872 -0.279054,0.62184 -0.279054,1.05937 0,0.53399 0.18087,0.97324 0.542605,1.31775 0.361733,0.34451 0.802706,0.51676 1.322917,0.51676 0.282495,0 0.52882,-0.0276 0.738973,-0.0827 0.210151,-0.0517 0.396185,-0.11713 0.558104,-0.19637 0.137803,-0.062 0.279054,-0.14469 0.423746,-0.24805 0.148141,-0.1068 0.265274,-0.18948 0.351401,-0.24804 v 0.61495 h 0.966349 v -3.91708 c 0,-0.37207 -0.05684,-0.68385 -0.170532,-0.93534 -0.113689,-0.2515 -0.279054,-0.45648 -0.496094,-0.61495 -0.220485,-0.16192 -0.482314,-0.27561 -0.785482,-0.34107 -0.299722,-0.0689 -0.652846,-0.10335 -1.059368,-0.10335 z m -41.268797,0.13953 v 3.74654 c 0,0.71658 0.16881,1.2609 0.506429,1.63297 0.337619,0.36863 0.809598,0.55294 1.415934,0.55294 0.361735,0 0.692465,-0.0689 0.992188,-0.20671 0.299723,-0.1378 0.613227,-0.33589 0.940511,-0.59428 v 0.64079 h 0.971517 v -5.77225 h -0.971517 v 4.30981 c -0.258382,0.20326 -0.537435,0.37035 -0.837158,0.50126 -0.296278,0.13092 -0.570164,0.19637 -0.821656,0.19637 -0.282497,0 -0.497816,-0.0344 -0.645955,-0.10335 -0.148139,-0.0689 -0.268717,-0.17915 -0.361735,-0.33073 -0.08957,-0.14814 -0.148139,-0.32556 -0.1757,-0.53227 -0.02756,-0.21015 -0.04134,-0.46164 -0.04134,-0.75447 v -3.28662 z m 6.097819,0 2.320273,5.77225 h 0.976682 l 2.335776,-5.77225 h -1.018026 l -1.772502,4.59403 -1.788004,-4.59403 z m 52.20353,0.64078 c 0.516766,0 0.900893,0.13953 1.152385,0.41858 0.254937,0.27906 0.38413,0.67352 0.387575,1.18339 h -3.307292 c 0.04134,-0.45475 0.215318,-0.83543 0.521931,-1.14205 0.31006,-0.30661 0.725193,-0.45992 1.245401,-0.45992 z m -68.9156878,0.12403 c 0.5064289,0 0.8733316,0.17914 1.1007078,0.53743 0.227376,0.35485 0.341064,0.87678 0.341064,1.5658 0,0.75447 -0.153306,1.30913 -0.4599198,1.66398 -0.3031683,0.3514 -0.72347,0.5271 -1.2609049,0.5271 -0.251492,0 -0.4771456,-0.0241 -0.6769613,-0.0723 -0.1963703,-0.0482 -0.4323594,-0.13436 -0.7079671,-0.25838 v -3.30729 c 0.2480469,-0.19293 0.5167643,-0.34968 0.8061524,-0.47026 0.289388,-0.12402 0.5753309,-0.18603 0.8578289,-0.18603 z m 76.9048668,0.13952 v 0.82683 h 6.128824 v -0.82683 z m -49.976278,1.83968 v 1.60714 c -0.241157,0.18604 -0.502983,0.34623 -0.785481,0.48059 -0.282499,0.13092 -0.594281,0.19637 -0.935345,0.19637 -0.409966,0 -0.714856,-0.0827 -0.914672,-0.24804 -0.199816,-0.16881 -0.299723,-0.41858 -0.299723,-0.74931 0,-0.29284 0.08613,-0.52193 0.258381,-0.6873 0.172255,-0.16881 0.39791,-0.29283 0.676961,-0.37207 0.234267,-0.0655 0.551217,-0.11541 0.950846,-0.14986 0.403077,-0.0344 0.752756,-0.0603 1.049033,-0.0775 z m 26.499674,0 v 1.60714 c -0.241157,0.18604 -0.502983,0.34623 -0.785481,0.48059 -0.282499,0.13092 -0.594281,0.19637 -0.935345,0.19637 -0.409966,0 -0.714856,-0.0827 -0.914672,-0.24804 -0.199816,-0.16881 -0.299723,-0.41858 -0.299723,-0.74931 0,-0.29284 0.08613,-0.52193 0.258382,-0.6873 0.172254,-0.16881 0.397909,-0.29283 0.67696,-0.37207 0.234267,-0.0655 0.551217,-0.11541 0.950846,-0.14986 0.403077,-0.0344 0.752756,-0.0603 1.049033,-0.0775 z m 23.476604,0.33073 v 0.82683 h 6.128824 v -0.82683 z m -41.408326,3.62769 v 0.62012 h 6.769613 v -0.62012 z"
       id="text827"
       inkscape:connector-curvature="0" />
    <rect
       style="opacity:1;fill:none;fill-opacity:1;stroke:#000000;stroke-width:1.08479166;stroke-linecap:butt;stroke-linejoin:miter;stroke-miterlimit:4;stroke-dasharray:none;stroke-opacity:1;paint-order:stroke markers fill"
       id="rect829"
       width="12.775625"
       height="12.775625"
       x="99.5914"
       y="255.00424" />
    <path
       style="fill:none;stroke:#000000;stroke-width:1.664;stroke-linecap:butt;stroke-linejoin:miter;stroke-miterlimit:4;stroke-dasharray:none;stroke-opacity:0.5073892"
       d="m 100.07616,268.67613 h 13.17294 v -13.1493"
       id="path887"
       inkscape:connector-curvature="0" />
    <rect
       style="opacity:1;fill:none;fill-opacity:1;stroke:#000000;stroke-width:1.08479166;stroke-linecap:butt;stroke-linejoin:miter;stroke-miterlimit:4;stroke-dasharray:none;stroke-opacity:1;paint-order:stroke markers fill"
       id="rect829-0"
       width="12.775625"
       height="12.775625"
       x="118.0174"
       y="255.00421" />
    <path
       style="fill:none;stroke:#000000;stroke-width:1.664;stroke-linecap:butt;stroke-linejoin:miter;stroke-miterlimit:4;stroke-dasharray:none;stroke-opacity:0.5073892"
       d="m 118.5022,268.67613 h 13.17293 v -13.1493"
       id="path887-6"
       inkscape:connector-curvature="0" />
    <rect
       style="opacity:1;fill:none;fill-opacity:1;stroke:#000000;stroke-width:1.08479166;stroke-linecap:butt;stroke-linejoin:miter;stroke-miterlimit:4;stroke-dasharray:none;stroke-opacity:1;paint-order:stroke markers fill"
       id="rect829-8"
       width="12.775625"
       height="12.775625"
       x="136.53819"
       y="255.00427" />
    <path
       style="fill:none;stroke:#000000;stroke-width:1.664;stroke-linecap:butt;stroke-linejoin:miter;stroke-miterlimit:4;stroke-dasharray:none;stroke-opacity:0.5073892"
       d="m 137.02276,268.67613 h 13.17293 v -13.1493"
       id="path887-2"
       inkscape:connector-curvature="0" />
    <rect
       style="opacity:1;fill:none;fill-opacity:1;stroke:#000000;stroke-width:1.08479166;stroke-linecap:butt;stroke-linejoin:miter;stroke-miterlimit:4;stroke-dasharray:none;stroke-opacity:1;paint-order:stroke markers fill"
       id="rect829-8-6"
       width="12.775625"
       height="12.775625"
       x="155.05902"
       y="255.00427" />
    <path
       style="fill:none;stroke:#000000;stroke-width:1.664;stroke-linecap:butt;stroke-linejoin:miter;stroke-miterlimit:4;stroke-dasharray:none;stroke-opacity:0.5073892"
       d="m 155.54359,268.67613 h 13.17293 v -13.1493"
       id="path887-2-0"
       inkscape:connector-curvature="0" />
    <rect
       style="opacity:1;fill:none;fill-opacity:1;stroke:#000000;stroke-width:1.08479166;stroke-linecap:butt;stroke-linejoin:miter;stroke-miterlimit:4;stroke-dasharray:none;stroke-opacity:1;paint-order:stroke markers fill"
       id="rect829-8-5"
       width="12.775625"
       height="12.775625"
       x="173.57985"
       y="255.00426" />
    <path
       style="fill:none;stroke:#000000;stroke-width:1.664;stroke-linecap:butt;stroke-linejoin:miter;stroke-miterlimit:4;stroke-dasharray:none;stroke-opacity:0.5073892"
       d="m 174.06444,268.67613 h 13.17293 v -13.1493"
       id="path887-2-2"
       inkscape:connector-curvature="0" />
    <rect
       style="opacity:1;fill:none;fill-opacity:1;stroke:#000000;stroke-width:1.08479166;stroke-linecap:butt;stroke-linejoin:miter;stroke-miterlimit:4;stroke-dasharray:none;stroke-opacity:1;paint-order:stroke markers fill"
       id="rect829-8-50"
       width="12.7756"
       height="12.775626"
       x="192.1028"
       y="255.00433" />
    <path
       style="fill:none;stroke:#000000;stroke-width:1.664;stroke-linecap:butt;stroke-linejoin:miter;stroke-miterlimit:4;stroke-dasharray:none;stroke-opacity:0.5073892"
       d="m 192.58738,268.67621 h 13.1729 v -13.1493"
       id="path887-2-6"
       inkscape:connector-curvature="0" />
    <rect
       style="opacity:1;fill:none;fill-opacity:1;stroke:#000000;stroke-width:1.08479166;stroke-linecap:butt;stroke-linejoin:miter;stroke-miterlimit:4;stroke-dasharray:none;stroke-opacity:1;paint-order:stroke markers fill"
       id="rect829-2"
       width="12.775625"
       height="12.775625"
       x="108.91255"
       y="273.10672" />
    <path
       style="fill:none;stroke:#000000;stroke-width:1.664;stroke-linecap:butt;stroke-linejoin:miter;stroke-miterlimit:4;stroke-dasharray:none;stroke-opacity:0.5073892"
       d="m 109.39691,286.77856 h 13.17294 v -13.1493"
       id="path887-8"
       inkscape:connector-curvature="0" />
    <rect
       style="opacity:1;fill:none;fill-opacity:1;stroke:#000000;stroke-width:1.08479166;stroke-linecap:butt;stroke-linejoin:miter;stroke-miterlimit:4;stroke-dasharray:none;stroke-opacity:1;paint-order:stroke markers fill"
       id="rect829-0-3"
       width="12.775625"
       height="12.775625"
       x="127.33875"
       y="273.10669" />
    <path
       style="fill:none;stroke:#000000;stroke-width:1.664;stroke-linecap:butt;stroke-linejoin:miter;stroke-miterlimit:4;stroke-dasharray:none;stroke-opacity:0.5073892"
       d="m 127.82295,286.77856 h 13.17293 v -13.1493"
       id="path887-6-5"
       inkscape:connector-curvature="0" />
    <rect
       style="opacity:1;fill:none;fill-opacity:1;stroke:#000000;stroke-width:1.08479166;stroke-linecap:butt;stroke-linejoin:miter;stroke-miterlimit:4;stroke-dasharray:none;stroke-opacity:1;paint-order:stroke markers fill"
       id="rect829-8-2"
       width="12.775625"
       height="12.775625"
       x="145.85956"
       y="273.10675" />
    <path
       style="fill:none;stroke:#000000;stroke-width:0.76438123;stroke-linecap:butt;stroke-linejoin:miter;stroke-miterlimit:4;stroke-dasharray:none;stroke-opacity:0.5073892"
       d="m 146.34351,286.77856 h 13.17293 v -13.1493"
       id="path887-2-3"
       inkscape:connector-curvature="0" />
    <rect
       style="opacity:1;fill:none;fill-opacity:1;stroke:#000000;stroke-width:1.08479166;stroke-linecap:butt;stroke-linejoin:miter;stroke-miterlimit:4;stroke-dasharray:none;stroke-opacity:1;paint-order:stroke markers fill"
       id="rect829-8-6-3"
       width="12.775625"
       height="12.775625"
       x="164.38039"
       y="273.10675" />
    <path
       style="fill:none;stroke:#000000;stroke-width:1.664;stroke-linecap:butt;stroke-linejoin:miter;stroke-miterlimit:4;stroke-dasharray:none;stroke-opacity:0.5073892"
       d="m 164.86434,286.77856 h 13.17293 v -13.1493"
       id="path887-2-0-2"
       inkscape:connector-curvature="0" />
    <rect
       style="opacity:1;fill:none;fill-opacity:1;stroke:#000000;stroke-width:1.08479166;stroke-linecap:butt;stroke-linejoin:miter;stroke-miterlimit:4;stroke-dasharray:none;stroke-opacity:1;paint-order:stroke markers fill"
       id="rect829-8-5-6"
       width="12.775625"
       height="12.775625"
       x="182.90121"
       y="273.10675" />
    <path
       style="fill:none;stroke:#000000;stroke-width:1.664;stroke-linecap:butt;stroke-linejoin:miter;stroke-miterlimit:4;stroke-dasharray:none;stroke-opacity:0.5073892"
       d="m 183.38519,286.77856 h 13.17293 v -13.1493"
       id="path887-2-2-7"
       inkscape:connector-curvature="0" />
    <text
       xml:space="preserve"
       style="font-style:normal;font-weight:normal;font-size:10.58333302px;line-height:1.25;font-family:sans-serif;letter-spacing:0px;word-spacing:0px;fill:#900048;fill-opacity:1;stroke:none;stroke-width:0.26458332;"
       x="102.62054"
       y="265.33978"
       id="text1037"><tspan
         sodipodi:role="line"
         id="tspan1035"
         x="102.62054"
         y="265.33978"
         style="stroke-width:0.26458332;fill:#900048;fill-opacity:1;">0</tspan></text>
    <text
       xml:space="preserve"
       style="font-style:normal;font-weight:normal;font-size:10.58333302px;line-height:1.25;font-family:sans-serif;letter-spacing:0px;word-spacing:0px;fill:#900048;fill-opacity:1;stroke:none;stroke-width:0.26458332;"
       x="120.80119"
       y="265.33978"
       id="text1041"><tspan
         sodipodi:role="line"
         id="tspan1039"
         x="120.80119"
         y="265.33978"
         style="stroke-width:0.26458332;fill:#900048;fill-opacity:1;">0</tspan></text>
    <text
       xml:space="preserve"
       style="font-style:normal;font-weight:normal;font-size:10.58333302px;line-height:1.25;font-family:sans-serif;letter-spacing:0px;word-spacing:0px;fill:#900048;fill-opacity:1;stroke:none;stroke-width:0.26458332;"
       x="139.88899"
       y="265.33978"
       id="text1045"><tspan
         sodipodi:role="line"
         id="tspan1043"
         x="139.88899"
         y="265.33978"
         style="stroke-width:0.26458332;fill:#900048;fill-opacity:1;">0</tspan></text>
    <text
       xml:space="preserve"
       style="font-style:normal;font-weight:normal;font-size:10.58333302px;line-height:1.25;font-family:sans-serif;letter-spacing:0px;word-spacing:0px;fill:#900048;fill-opacity:1;stroke:none;stroke-width:0.26458332;"
       x="158.08104"
       y="265.33978"
       id="text1049"><tspan
         sodipodi:role="line"
         id="tspan1047"
         x="158.08104"
         y="265.33978"
         style="stroke-width:0.26458332;fill:#900048;fill-opacity:1;">6</tspan></text>
  </g>
</svg>
