<?xml version="1.0" encoding="UTF-8" standalone="no"?>
<!-- Created with Inkscape (http://www.inkscape.org/) -->

<svg
   xmlns:dc="http://purl.org/dc/elements/1.1/"
   xmlns:cc="http://creativecommons.org/ns#"
   xmlns:rdf="http://www.w3.org/1999/02/22-rdf-syntax-ns#"
   xmlns:svg="http://www.w3.org/2000/svg"
   xmlns="http://www.w3.org/2000/svg"
   xmlns:sodipodi="http://sodipodi.sourceforge.net/DTD/sodipodi-0.dtd"
   xmlns:inkscape="http://www.inkscape.org/namespaces/inkscape"
   version="1.1"
   id="svg823"
   width="1351.2496"
   height="1102.3215"
   viewBox="0 0 1351.2497 1102.3216"
   sodipodi:docname="duck-alpha-cropped.svg"
   inkscape:version="0.92.4 (5da689c313, 2019-01-14)">
  <metadata
     id="metadata829">
    <rdf:RDF>
      <cc:Work
         rdf:about="">
        <dc:format>image/svg+xml</dc:format>
        <dc:type
           rdf:resource="http://purl.org/dc/dcmitype/StillImage" />
        <dc:title></dc:title>
      </cc:Work>
    </rdf:RDF>
  </metadata>
  <defs
     id="defs827">
    <inkscape:path-effect
       effect="bspline"
       id="path-effect1455"
       is_visible="true"
       weight="33.333333"
       steps="2"
       helper_size="0"
       apply_no_weight="true"
       apply_with_weight="true"
       only_selected="false" />
    <inkscape:path-effect
       effect="bspline"
       id="path-effect1451"
       is_visible="true"
       weight="33.333333"
       steps="2"
       helper_size="0"
       apply_no_weight="true"
       apply_with_weight="true"
       only_selected="false" />
    <inkscape:path-effect
       effect="bspline"
       id="path-effect1447"
       is_visible="true"
       weight="33.333333"
       steps="2"
       helper_size="0"
       apply_no_weight="true"
       apply_with_weight="true"
       only_selected="false" />
    <inkscape:path-effect
       effect="bspline"
       id="path-effect1432"
       is_visible="true"
       weight="33.333333"
       steps="2"
       helper_size="0"
       apply_no_weight="true"
       apply_with_weight="true"
       only_selected="false" />
    <inkscape:path-effect
       effect="bspline"
       id="path-effect1428"
       is_visible="true"
       weight="33.333333"
       steps="2"
       helper_size="0"
       apply_no_weight="true"
       apply_with_weight="true"
       only_selected="false" />
  </defs>
  <sodipodi:namedview
     pagecolor="#ffffff"
     bordercolor="#666666"
     borderopacity="1"
     objecttolerance="10"
     gridtolerance="10"
     guidetolerance="10"
     inkscape:pageopacity="0"
     inkscape:pageshadow="2"
     inkscape:window-width="1920"
     inkscape:window-height="1046"
     id="namedview825"
     showgrid="false"
     inkscape:zoom="0.35355339"
     inkscape:cx="1606.042"
     inkscape:cy="723.71629"
     inkscape:window-x="-11"
     inkscape:window-y="-11"
     inkscape:window-maximized="1"
     inkscape:current-layer="svg823"
     fit-margin-top="0"
     fit-margin-left="0"
     fit-margin-right="0"
     fit-margin-bottom="0" />
  <path
     style="fill:#fed928;fill-opacity:1;stroke:#fed928;stroke-width:1px;stroke-linecap:butt;stroke-linejoin:miter;stroke-opacity:1"
     d="m 435.22541,501.62004 c -0.47355,-6.1839 4.13083,-5.24215 8.75603,-6.94848 4.6252,-1.70632 9.21192,-6.05063 15.78458,-12.09669 6.57266,-6.04606 14.97217,-13.6483 27.55085,-25.276 12.57868,-11.62771 28.89204,-26.86942 52.32925,-42.99323 23.4372,-16.12381 53.19854,-32.55695 86.24565,-44.20377 33.04711,-11.64682 69.15245,-18.3821 104.88205,-19.27478 35.7296,-0.89269 71.08611,4.05722 104.26609,16.39741 33.17998,12.34019 64.40017,32.20758 90.15039,54.00982 25.75023,21.80224 46.13864,45.60837 61.22354,72.30143 15.08486,26.69307 24.86646,56.27359 30.70026,86.62042 5.8337,30.34682 7.7192,61.45888 1.1196,95.28258 -6.5996,33.82369 -21.68406,70.35643 -40.01002,99.99646 -18.32597,29.64003 -39.89201,52.38454 -52.0308,65.52498 -12.13878,13.14044 -14.84924,16.67581 -17.08884,20.38869 -2.2396,3.71287 -4.00681,7.60073 -4.83204,12.72836 -0.82522,5.12763 -0.70741,11.48961 1.91377,16.51928 2.62117,5.02966 7.63207,8.64217 19.59411,8.34743 11.96205,-0.29475 30.81891,-4.53754 57.27577,-8.00934 26.45685,-3.47179 60.75295,-6.19182 93.16145,-6.5748 32.4084,-0.38297 63.0648,1.56253 85.3241,1.41637 22.2593,-0.14615 36.1542,-2.38247 48.9949,-6.83036 12.8406,-4.44788 24.6116,-11.10305 38.2551,-20.66274 13.6436,-9.55969 29.1935,-22.04677 44.7654,-34.55149 15.5719,-12.50471 31.1264,-24.99539 46.6345,-38.19622 15.5081,-13.20083 30.9805,-27.12146 44.4812,-35.32006 13.5008,-8.1986 25.038,-10.68204 37.1972,-7.70041 12.1593,2.98162 24.9421,11.42746 33.6841,27.96836 8.7419,16.54091 13.4425,41.17634 15.4193,66.06633 1.9767,24.88999 1.2296,50.03441 2.5116,69.00086 1.282,18.96645 4.5935,31.75327 6.5437,44.65754 1.9502,12.90427 2.5391,25.92532 2.554,36.53323 0.015,10.60791 -0.5445,18.79778 -1.1041,26.98808 -0.5597,8.1904 -1.1195,16.3798 -1.5394,22.5239 -0.4199,6.1441 -0.6996,10.2395 -0.9794,14.3349 -0.2799,4.0955 -0.5599,8.191 -0.9799,14.3324 -0.4199,6.1413 -0.9803,14.3354 1.9212,34.5153 2.9015,20.1799 9.2661,52.3569 12.9255,74.0661 3.6593,21.7091 4.6139,32.9526 -1.539,62.0679 -6.1529,29.1154 -19.4116,76.093 -40.1006,111.6607 -20.6889,35.5677 -48.8058,59.7182 -86.9661,73.3263 -38.1602,13.6081 -86.3595,16.6721 -159.6667,20.4435 -73.3072,3.7714 -171.7054,8.2494 -281.01294,10.1351 -109.30759,1.8856 -229.51447,1.1785 -330.15975,-5.3033 -100.64528,-6.4818 -181.72618,-18.7382 -246.07318,-29.7573 -64.34699,-11.0191 -111.95835,-20.8007 -143.1895,-51.266 -31.23115,-30.4654 -46.08017,-81.6119 -53.32127,-121.5495 -7.24109,-39.9375 -6.87414,-68.6745 -0.15838,-94.4474 6.71576,-25.773 19.785,-48.6089 32.19075,-68.1153 12.40575,-19.5063 24.14043,-35.6722 45.23576,-56.0003 21.09534,-20.3281 51.57724,-44.8382 77.53102,-64.17338 25.95379,-19.33519 47.42496,-33.53379 67.0645,-48.62536 19.63955,-15.09157 37.34409,-31.00258 48.32441,-44.61575 10.98032,-13.61318 15.31193,-24.9774 16.44202,-38.54183 1.1301,-13.56443 -0.9989,-29.07617 -0.62677,-33.98953 0.37214,-4.91336 3.25084,0.56065 5.77376,4.48508 2.52293,3.92443 4.67115,6.2522 7.38882,9.31807 2.71766,3.06586 6.07473,6.94875 9.37692,5.30519 3.3022,-1.64357 6.57088,-8.7879 8.92244,-16.95276 2.35157,-8.16485 3.786,-17.3486 3.65449,-24.62201 -0.13152,-7.27341 -1.82853,-12.63511 -3.63038,-18.01869 -1.80186,-5.38359 -3.70769,-10.78647 -4.21006,-18.45662 -0.50236,-7.67015 0.39896,-17.60739 3.57268,-24.57812 3.17373,-6.97073 8.62079,-10.98087 13.67192,-15.13676 5.05114,-4.15589 9.70628,-8.45746 17.95694,-16.08932 8.25067,-7.63185 20.09307,-18.59049 14.36997,-36.04787 -5.7231,-17.45738 -28.96105,-41.36025 -42.05349,-56.8096 -13.09244,-15.44935 -15.92446,-22.30961 -18.34547,-29.72398 -2.421,-7.41436 -4.42384,-15.36311 -8.22189,-25.95292 -3.79806,-10.5898 -9.32806,-23.6662 -9.80161,-29.8501 z"
     id="path1426"
     inkscape:connector-curvature="0"
     inkscape:path-effect="#path-effect1428"
     inkscape:original-d="m 430.06306,494.47713 c 4.68904,0.95786 9.29342,1.8996 13.93757,2.85069 4.60599,-4.36261 9.19271,-8.70692 13.81707,-13.08683 8.52094,-7.71223 16.92044,-15.31447 25.4511,-23.03531 16.62672,-15.53455 32.94008,-30.77626 49.59682,-46.33873 30.21751,-16.68547 59.97885,-33.1186 89.96677,-49.6764 36.10634,-6.73628 72.21168,-13.47157 108.31602,-20.20585 35.35517,4.94859 70.71168,9.8985 106.06602,14.84924 31.11295,19.56183 62.22639,39.59698 93.33809,59.39697 20.38908,23.80473 40.77749,47.61086 61.16474,71.41779 9.78264,29.57974 19.56424,59.16026 29.34494,88.7419 1.8866,31.11233 3.7722,62.22439 5.6568,93.33809 -15.0844,36.53395 -30.16885,73.0667 -45.25479,109.60155 -21.56647,22.74502 -43.13251,45.48954 -64.70027,68.23581 -2.7097,3.53469 -5.42015,7.07007 -8.13173,10.6066 -1.76732,3.88931 -3.53453,7.77717 -5.3033,11.66726 0.11889,6.36494 0.2367,12.72692 0.35355,19.09188 5.06938,3.77082 10.1362,7.30577 15.2028,10.96016 18.8565,-4.24349 37.71336,-8.48628 56.56854,-12.72792 34.0579,-2.71141 68.3547,-5.42215 102.5305,-8.13173 30.6413,1.94348 61.2977,3.88898 91.9239,5.83363 13.8922,-2.23673 27.7871,-4.47304 41.693,-6.71029 11.7753,-6.65803 23.5463,-13.31321 35.2995,-19.95786 15.534,-12.4745 31.0839,-24.96158 46.6477,-37.45964 15.58,-12.51141 31.1345,-25.00205 46.6904,-37.49368 15.4604,-13.90995 30.9327,-27.83062 46.3976,-41.74443 11.5365,-2.48407 23.0737,-4.9675 34.609,-7.44975 12.7842,8.44507 25.567,16.89094 38.3495,25.33821 4.7018,24.63545 9.4023,49.27089 14.1019,73.90744 -0.7462,25.14368 -1.4934,50.2881 -2.2416,75.43486 3.3125,12.78581 6.624,25.57263 9.9342,38.35922 0.5893,13.02224 1.179,26.04325 1.7671,39.06897 -0.5585,8.19021 -1.1185,16.38002 -1.6782,24.57032 -0.5596,8.1904 -1.1188,16.3799 -1.6798,24.5733 -0.2787,4.0948 -0.5591,8.1901 -0.8391,12.2855 -0.2799,4.0955 -0.5591,8.1911 -0.84,12.2864 -0.559,8.1874 -1.1193,16.3815 -1.6804,24.5723 6.3642,32.1687 12.7289,64.3457 19.0918,96.5201 0.9557,11.244 1.9103,22.4875 2.864,33.734 -13.2599,46.9845 -26.5187,93.9621 -39.78,140.9465 -28.1173,24.1507 -56.2342,48.3012 -84.3528,72.4533 -48.2019,3.0633 -96.4012,6.1273 -144.6033,9.1924 -98.4069,4.5953 -196.8104,8.9557 -295.21709,13.435 -120.20843,-0.7081 -240.41531,-1.4152 -360.62446,-2.1213 -81.08125,-12.2576 -162.16215,-24.514 -243.24473,-36.7695 -47.61134,-9.7828 -95.22271,-19.5643 -142.83557,-29.345 -14.84848,-51.1492 -29.69748,-102.2958 -44.54773,-153.4421 0.36783,-28.7284 0.73479,-57.4654 1.10051,-86.1831 13.06511,-22.828 26.13438,-45.6639 39.20466,-68.5024 11.74108,-16.1743 23.47573,-32.3402 35.21199,-48.5086 30.45416,-24.488 60.93605,-48.99812 91.36004,-73.46148 21.48353,-14.20712 42.9547,-28.40572 64.50766,-42.65809 17.72623,-15.93059 35.43077,-31.84161 53.04884,-47.6748 4.34316,-11.39289 8.67477,-22.75711 13.0737,-34.29958 -2.13816,-15.58675 -4.26717,-31.09849 -6.35618,-46.31058 2.83336,5.38489 5.71206,10.8589 8.62208,16.39535 2.13489,2.31281 4.2839,4.63985 6.40394,6.93917 3.31532,3.83245 6.67238,7.71534 10.00673,11.57411 3.26943,-7.14477 6.53811,-14.28911 9.80596,-21.4328 1.43565,-9.18609 2.87009,-18.36984 4.30369,-27.55363 -1.69627,-5.36354 -3.39327,-10.72524 -5.09166,-16.08717 -1.90532,-5.40528 -3.81114,-10.80817 -5.71837,-16.21119 0.90219,-9.93677 1.80351,-19.87401 2.70342,-29.80572 5.44651,-4.01 10.89357,-8.02014 16.3407,-12.03007 4.65526,-4.30169 9.31037,-8.60329 13.96502,-12.90433 11.84668,-10.96267 23.68908,-21.92131 35.53212,-32.88046 -23.28818,-23.95656 -46.52614,-47.85943 -69.86753,-71.86666 -2.84329,-6.89098 -5.67532,-13.75124 -8.51415,-20.62458 -2.0032,-7.95519 -4.00604,-15.90394 -6.01307,-23.86437 -5.58905,-13.21939 -11.11905,-26.29579 -16.75616,-39.62209 z"
     sodipodi:nodetypes="cccccccccccccccccccccccccccccccccccccccccccccccccccccccccccccccccccccc"
     transform="translate(-144.98468,-350.22547)" />
  <path
     style="fill:#fc4535;fill-opacity:1;stroke:#fc4535;stroke-width:1px;stroke-linecap:butt;stroke-linejoin:miter;stroke-opacity:1"
     d="m 435.47564,496.23269 c -1.35891,-0.68364 -4.49217,-1.96784 -7.57715,-2.00228 -3.08498,-0.0344 -6.11487,1.17944 -11.37363,0.37721 -5.25877,-0.80223 -12.71669,-3.61917 -20.17027,-6.43411 -7.45357,-2.81494 -14.90278,-5.62789 -26.21703,-9.76976 -11.31424,-4.14188 -26.47199,-9.60477 -38.38771,-12.73343 -11.91572,-3.12865 -20.58123,-3.92021 -26.49879,-0.83715 -5.91756,3.08306 -9.08384,10.04054 -13.68838,16.2704 -4.60453,6.22986 -10.64391,11.72778 -14.93675,21.85445 -4.29284,10.12666 -6.83386,24.8729 -5.04225,39.08273 1.79161,14.20983 7.91805,27.87971 12.18294,35.42971 4.26489,7.55 6.67202,8.98757 8.62104,10.30057 1.94902,1.313 3.43928,2.50094 5.24135,3.70913 1.80206,1.2082 3.91696,2.43735 6.03118,3.66651 2.11423,1.22915 4.22779,2.45832 4.61155,3.69298 0.38377,1.23466 -0.96163,2.47654 -2.31001,3.72119 -1.34839,1.24465 -2.69811,2.49055 -4.0521,3.74038 -1.35399,1.24983 -2.70813,2.49978 -4.06253,3.75 -1.35439,1.25021 -2.70854,2.50021 -4.06546,3.75276 -1.35692,1.25254 -2.715,2.50614 -4.07305,3.75972 -1.35806,1.25359 -2.71543,2.50655 -4.07122,3.75805 -1.35579,1.2515 -2.71249,2.50383 -4.06932,3.7563 -1.35682,1.25247 -2.71377,2.50507 -5.63592,6.45608 -2.92215,3.95101 -7.43135,10.63131 -9.43179,14.96504 -2.00043,4.33373 -1.50052,6.33338 -0.58363,8.91738 0.91688,2.584 2.24975,5.74955 4.16671,8.58332 1.91697,2.83378 4.41658,5.33339 8.41674,8.16681 4.00016,2.83343 9.50016,6.0001 15.50006,8.9167 5.9999,2.9166 12.50028,5.58342 20.16668,8.24998 7.66639,2.66655 16.50041,5.33343 22.33353,7.33338 5.83313,1.99996 8.66667,3.33339 12.41626,5.33318 3.74958,1.99978 8.41696,4.66686 12.5833,8.16657 4.16634,3.49971 7.83326,7.83334 11.49996,12.25005 3.6667,4.4167 7.33329,8.91661 17.95853,20.91687 10.62523,12.00027 28.20814,31.4998 37.11463,40.9263 8.90649,9.42651 9.13513,8.78213 9.40496,8.53463 0.26982,-0.2475 0.57979,-0.0966 3.54512,3.92417 2.96534,4.02078 8.58739,11.91297 12.33604,15.28178 3.74865,3.36882 5.62426,2.21702 7.20537,0.56391 1.58111,-1.65312 2.8665,-3.80503 4.19552,-6.68675 1.32902,-2.88173 2.70035,-6.49008 3.78409,-10.39296 1.08375,-3.90288 1.87956,-8.09781 2.56424,-12.05981 0.68468,-3.96201 1.25713,-7.68471 0.79319,-12.33098 -0.46393,-4.64628 -1.96519,-10.22503 -3.59865,-15.80071 -1.63346,-5.57567 -3.39901,-11.14834 -4.20643,-16.3012 -0.80742,-5.15287 -0.65986,-9.91059 -0.24279,-13.98903 0.41707,-4.07843 1.10382,-7.48669 2.26238,-10.74143 1.15857,-3.25474 2.78657,-6.35141 5.55577,-9.56527 2.76919,-3.21386 6.67368,-6.53838 11.39697,-10.62271 4.72329,-4.08434 10.26496,-8.92814 15.78657,-13.91846 5.52161,-4.99031 11.01955,-10.12377 13.57157,-17.22412 2.55201,-7.10035 2.15627,-16.16088 -1.9948,-25.39487 -4.15106,-9.23399 -12.05722,-18.64014 -18.73954,-26.44226 -6.68233,-7.80212 -12.14057,-13.99993 -17.4323,-20.21875 -5.29173,-6.21883 -10.41587,-12.45737 -13.59865,-17.01537 -3.18278,-4.558 -4.42359,-7.43584 -5.35527,-9.67402 -0.93167,-2.23819 -1.55661,-3.84219 -2.79101,-7.71733 -1.2344,-3.87514 -3.07798,-10.02041 -5.12495,-16.16649 -2.04696,-6.14607 -4.2966,-12.29092 -6.06241,-17.13516 -1.7658,-4.84425 -3.04677,-8.38512 -4.1094,-11.64078 -1.06264,-3.25565 -1.90557,-6.22152 -2.28605,-8.25962 -0.38049,-2.0381 -0.29744,-3.13847 -0.14077,-3.91127 0.15666,-0.7728 0.3847,-1.20814 0.59898,-1.53205 0.21428,-0.32391 0.41165,-0.53166 0.7193,-0.67739 0.30766,-0.14572 0.72439,-0.22907 -0.63452,-0.91272 z"
     id="path1430"
     inkscape:connector-curvature="0"
     inkscape:path-effect="#path-effect1432"
     inkscape:original-d="m 437.25,496.83325 c -3.13278,-1.28541 -6.26604,-2.56961 -9.40135,-3.85324 -3.03535,1.21545 -6.06524,2.42932 -9.10755,3.64876 -7.47455,-2.82459 -14.93282,-5.64061 -22.38639,-8.45556 -7.45358,-2.81494 -14.90245,-5.62879 -22.36025,-8.44361 -15.17071,-5.46893 -30.32845,-10.93183 -45.49446,-16.39634 -8.66577,-0.79268 -17.33128,-1.58424 -26,-2.375 -3.16605,6.95818 -6.33233,13.91566 -9.5,20.875 -6.0419,5.50012 -12.08128,10.99804 -18.125,16.5 -2.54111,14.75156 -5.08213,29.4978 -7.625,44.25 6.1265,13.66678 12.25294,27.33666 18.375,41 2.40721,1.43602 4.81434,2.87359 7.22091,4.31242 1.49165,1.18725 2.98191,2.37519 4.47082,3.56385 2.11503,1.22765 4.22941,2.45769 6.34363,3.68684 2.11423,1.22916 4.22831,2.45744 6.33964,3.68689 -1.34453,1.24101 -2.6899,2.48292 -4.03828,3.72758 -1.34838,1.24465 -2.69814,2.49051 -4.05103,3.73941 -1.35509,1.25075 -2.7092,2.50074 -4.06359,3.75095 -1.3544,1.25022 -2.70858,2.50019 -4.06512,3.75248 -1.3573,1.2528 -2.71535,2.50643 -4.0734,3.76002 -1.35805,1.25358 -2.71546,2.50651 -4.07324,3.75993 -1.3538,1.24958 -2.71047,2.50194 -4.0673,3.75441 -1.35682,1.25247 -2.7138,2.50504 -4.06804,3.75522 -4.4898,6.65203 -8.999,13.33233 -13.5,20 0.50109,1.99934 1.001,3.999 1.5,6 1.3348,3.16678 2.66767,6.33233 4,9.5 2.50139,2.49938 5.001,4.999 7.5,7.5 5.501,3.16566 11.001,6.33233 16.5,9.5 6.50062,2.66551 13.001,5.33233 19.5,8 8.83365,2.66545 17.66767,5.33233 26.5,8 2.83413,1.33223 5.66767,2.66566 8.5,4 4.66695,2.66525 9.33433,5.33233 14,8 3.66741,4.33203 7.33433,8.66566 11,13 3.66774,4.49909 7.33433,8.999 11,13.5 17.58476,19.49948 35.16767,38.999 52.75,58.5 0.23017,-0.64684 0.45882,-1.29121 0.6875,-1.93751 0.31098,0.14989 0.62094,0.30078 0.92992,0.45267 5.62225,7.89006 11.24429,15.78225 16.86373,23.67318 1.87656,-1.15277 3.75217,-2.30457 5.62748,-3.4558 1.28737,-2.15454 2.57277,-4.30645 3.85812,-6.45895 1.37293,-3.61092 2.74426,-7.21927 4.11481,-10.82719 0.79718,-4.1979 1.59299,-8.39283 2.38865,-12.59124 0.57375,-3.72562 1.1462,-7.44832 1.71729,-11.16767 -1.49861,-5.57365 -3.00075,-11.15216 -4.5015,-16.72786 -1.76527,-5.57595 -3.53082,-11.14862 -5.294,-16.70964 0.14811,-4.7443 0.29566,-9.50202 0.44195,-14.25 0.68765,-3.40877 1.3744,-6.81703 2.0604,-10.22549 1.63074,-3.10097 3.25875,-6.19764 4.88782,-9.29726 3.90887,-3.32839 7.81336,-6.6529 11.71783,-9.97725 5.54212,-4.84431 11.08379,-9.68811 16.62537,-14.53171 5.50166,-5.137 10.99961,-10.27046 16.49963,-15.40579 -0.39492,-9.06538 -0.79066,-18.12591 -1.1875,-27.1875 -7.90525,-9.40725 -15.81142,-18.81339 -23.71875,-28.21875 -5.45733,-6.19891 -10.91557,-12.39672 -16.375,-18.59375 -5.124,-6.24058 -10.24815,-12.47912 -15.375,-18.71875 -1.23858,-2.876 -2.48818,-5.75005 -3.71875,-8.625 -0.624,-1.60516 -1.24894,-3.20916 -1.875,-4.8125 -1.84275,-6.14683 -3.68633,-12.2921 -5.53125,-18.4375 -2.249,-6.14683 -4.49864,-12.29168 -6.75,-18.4375 -1.28025,-3.54266 -2.56121,-7.08354 -3.84375,-10.625 -0.84275,-2.96975 -1.68568,-5.93562 -2.53125,-8.90625 0.0843,-1.10516 0.15699,-2.20631 0.25,-3.3125 0.23017,-0.4385 0.45821,-0.87384 0.6875,-1.3125 0.19892,-0.20933 0.39628,-0.41709 0.59375,-0.625 0.41767,-0.0843 0.8344,-0.16768 1.25,-0.25 z"
     sodipodi:nodetypes="ccccccccccccccccccccccccccccccccccccccccccccccccccccccccccccccccc"
     transform="translate(-144.98468,-350.22547)" />
  <path
     style="fill:#ffffff;fill-opacity:1;stroke:#ebffff;stroke-width:1px;stroke-linecap:butt;stroke-linejoin:miter;stroke-opacity:1"
     d="m 563.20944,496.16575 c 12.62504,-9.83326 24.20838,-17.58326 39.41606,-21.37491 15.20769,-3.79165 34.20882,-3.62424 49.35342,-0.41894 15.14461,3.2053 26.51897,9.4497 35.66933,21.26124 9.15036,11.81154 16.07772,29.19087 6.18288,52.23571 -9.89484,23.04484 -36.61223,51.75381 -65.59635,61.56754 -28.98413,9.81373 -60.23344,0.73059 -78.10923,-15.68692 -17.8758,-16.41751 -22.3757,-40.16699 -17.79176,-58.0004 4.58393,-17.8334 18.2506,-29.75007 30.87565,-39.58332 z"
     id="path1445"
     inkscape:connector-curvature="0"
     inkscape:path-effect="#path-effect1447"
     inkscape:original-d="m 564.25,494.08326 c 11.58433,-7.751 23.16766,-15.501 34.75,-23.25 18.83246,0.24897 37.83433,0.33233 56.75,0.5 11.37418,6.24275 22.74854,12.48715 34.12132,18.73223 6.9285,17.37871 13.85585,34.75804 20.78249,52.13909 -26.71748,28.70914 -53.43487,57.41812 -80.15381,86.12868 -31.249,-9.08433 -62.49831,-18.16747 -93.75,-27.25 -4.4991,-23.75152 -8.999,-47.501 -13.5,-71.25 13.66766,-11.91766 27.33433,-23.83433 41,-35.75 z"
     sodipodi:nodetypes="ccccccccc"
     transform="translate(-144.98468,-350.22547)" />
  <path
     style="fill:#000015;fill-opacity:1;stroke:#000000;stroke-width:1px;stroke-linecap:butt;stroke-linejoin:miter;stroke-opacity:1"
     d="m 567.15966,505.11405 c 9.36923,-7.10042 21.80252,-15.29107 35.47245,-18.91463 13.66992,-3.62355 28.57947,-2.68066 39.27369,4.9495 10.69422,7.63016 17.17644,21.94996 14.55458,37.32945 -2.62187,15.3795 -14.34769,31.81921 -30.23543,42.48699 -15.88773,10.66777 -35.90747,15.55494 -51.22897,13.52193 -15.3215,-2.03301 -25.92748,-10.98917 -30.11113,-22.18569 -4.18366,-11.19652 -1.9445,-24.63144 2.32775,-34.35382 4.27225,-9.72238 10.57783,-15.7333 19.94706,-22.83373 z"
     id="path1449"
     inkscape:connector-curvature="0"
     inkscape:path-effect="#path-effect1451"
     inkscape:original-d="m 564.09443,506.20505 c 12.4343,-8.19166 24.86759,-16.38231 37.29989,-24.57196 14.90778,0.94172 29.81733,1.88461 44.7245,2.82842 6.48241,14.31702 12.96462,28.63683 19.44544,42.95674 -11.72556,16.43975 -23.45138,32.87946 -35.17857,49.3207 -20.03507,4.94909 -40.06838,9.78064 -60.10407,14.67246 -10.60623,-8.95821 -21.21221,-17.91437 -31.81981,-26.87005 2.24019,-13.43615 4.47935,-26.87106 6.71752,-40.30509 6.3055,-6.0109 12.61107,-12.02182 18.9151,-18.03122 z"
     transform="translate(-144.98468,-350.22547)" />
  <path
     style="fill:#f2c202;fill-opacity:1;stroke:#f2c202;stroke-width:1px;stroke-linecap:butt;stroke-linejoin:miter;stroke-opacity:1"
     d="m 1021.6675,985.66649 c 30.3337,-1.33362 67.8337,-13.33362 95.0833,-19.33343 27.2497,-5.99981 44.2502,-5.99981 61.0826,1.74976 16.8323,7.74957 33.4999,23.25047 36.0642,41.03368 2.5642,17.7832 -8.8946,37.7115 -20.0633,49.2976 -11.1687,11.5862 -22.0003,14.7523 -26.0424,20.9599 -4.0421,6.2076 -1.2919,15.4573 1.4582,24.7076 2.7501,9.2504 5.4997,18.5001 3.2087,26.542 -2.291,8.0419 -9.6241,14.875 -17.1243,21.7085 -7.5002,6.8335 -15.1665,13.6667 -18.7088,22.1664 -3.5422,8.4998 -2.9587,18.6654 -2.3753,28.8327 0.5834,10.1674 1.1665,20.335 -31.8714,38.3337 -33.0379,17.9987 -99.7111,43.8346 -169.87851,59.9182 -70.16741,16.0836 -143.83275,22.4168 -218.16696,7.9167 -74.33422,-14.5002 -149.33311,-49.833 -178.9998,-100.8339 -29.66669,-51.0009 -14.00011,-117.6672 32.37645,-158.4934 46.37655,-40.8262 122.81957,-55.68811 166.81907,-58.81417 43.9995,-3.12606 55.23519,5.54581 84.85358,3.67442 29.61839,-1.87138 77.61835,-14.28559 113.20135,-15.82577 35.583,-1.54019 58.74967,7.79314 89.08332,6.45951 z"
     id="path1453"
     inkscape:connector-curvature="0"
     inkscape:path-effect="#path-effect1455"
     inkscape:original-d="m 1014.5,996.33325 c 37.501,-12.001 75.001,-24.001 112.5,-36 17.0005,-10e-4 34.001,-10e-4 51,0 16.6667,15.49809 33.3343,30.999 50,46.50005 -11.5379,20.0666 -22.9966,39.9949 -34.5,60 -10.8346,3.1663 -21.6662,6.3325 -32.5,9.5 2.751,9.2479 5.5003,18.4979 8.2504,27.7482 2.7501,9.2504 5.5006,18.4998 8.2496,27.7518 -7.3322,6.8322 -14.6653,13.6653 -21.9988,20.4988 -7.6669,6.8335 -15.3333,13.6666 -23.0012,20.5012 0.5846,10.1649 1.1681,20.3305 1.7507,30.4983 0.5841,10.1669 1.1673,20.3345 1.7493,30.5017 -66.6591,25.8298 -133.3323,51.6657 -200,77.5 -73.667,6.3324 -147.33234,12.6656 -221,19 -75.0001,-35.3349 -149.999,-70.6677 -225,-106 15.66775,-66.6681 31.33433,-133.3344 47,-200 77.08658,-14.9878 153.5296,-29.84968 230.29289,-44.77302 11.23671,8.67089 22.4724,17.34276 33.70711,26.01562 48.00105,-12.4152 96.001,-24.82942 144,-37.24265 23.16767,9.33233 46.33433,18.66567 69.5,28 z"
     sodipodi:nodetypes="cccccccccccccccccccc"
     transform="translate(-144.98468,-350.22547)" />
</svg>
