<svg xmlns="http://www.w3.org/2000/svg" viewBox="0 0 462.2 404.9"><defs><style>.cls-1,.cls-3,.cls-5{fill:#fff;}.cls-1,.cls-2,.cls-9{stroke:#231f20;}.cls-1,.cls-11,.cls-2,.cls-3,.cls-4,.cls-5,.cls-6,.cls-7,.cls-9{stroke-miterlimit:10;}.cls-1,.cls-11,.cls-3,.cls-5,.cls-7,.cls-9{stroke-width:2px;}.cls-10,.cls-2{fill:#231f20;}.cls-11,.cls-3,.cls-4{stroke:#ed2024;}.cls-12,.cls-4{fill:#ed2024;}.cls-5,.cls-6,.cls-7{stroke:#32b44a;}.cls-6,.cls-8{fill:#32b44a;}.cls-11,.cls-7,.cls-9{fill:none;}</style></defs><title>Asset 2</title><g id="Layer_2" data-name="Layer 2"><g id="Layer_1-2" data-name="Layer 1"><circle class="cls-1" cx="169.94" cy="43.69" r="42.69"/><path class="cls-2" d="M162.1,32.17a44.84,44.84,0,0,1,6.66-.5c4.5,0,7.7,1,9.83,3S182,39.48,182,43.4s-1.22,7.2-3.49,9.43-6,3.49-10.73,3.49A50.62,50.62,0,0,1,162.1,56Zm3.13,21.45a19.77,19.77,0,0,0,3.17.18c6.7,0,10.33-3.74,10.33-10.29,0-5.72-3.2-9.36-9.83-9.36a17.78,17.78,0,0,0-3.67.32Z"/><circle class="cls-3" cx="293.67" cy="196.72" r="42.69"/><path class="cls-4" d="M292.76,202.52l-2.52,7.63H287l8.24-24.26H299l8.28,24.26H304l-2.59-7.63Zm8-2.45-2.38-7c-.54-1.58-.9-3-1.26-4.43H297c-.36,1.44-.76,2.92-1.22,4.39l-2.38,7Z"/><circle class="cls-3" cx="418.51" cy="361.22" r="42.69"/><path class="cls-4" d="M410.67,349.7a30.33,30.33,0,0,1,5.72-.5c3.13,0,5.15.54,6.66,1.76a5.09,5.09,0,0,1,2,4.28,5.76,5.76,0,0,1-4.1,5.33v.07a6.25,6.25,0,0,1,5,6.08,6.54,6.54,0,0,1-2.05,4.86c-1.69,1.55-4.43,2.27-8.39,2.27a36.7,36.7,0,0,1-4.86-.29Zm3.13,9.93h2.84c3.31,0,5.26-1.73,5.26-4.07,0-2.84-2.16-4-5.33-4a13.48,13.48,0,0,0-2.77.22Zm0,11.63a16.82,16.82,0,0,0,2.63.14c3.24,0,6.23-1.19,6.23-4.72,0-3.31-2.84-4.68-6.26-4.68H413.8Z"/><circle class="cls-5" cx="43.69" cy="197.72" r="42.69"/><path class="cls-6" d="M52.2,207.9A15.54,15.54,0,0,1,45.79,209c-6.84,0-12-4.32-12-12.27,0-7.6,5.15-12.74,12.67-12.74a13,13,0,0,1,5.76,1.08l-.76,2.56a11.41,11.41,0,0,0-4.9-1c-5.69,0-9.47,3.64-9.47,10,0,5.94,3.42,9.75,9.32,9.75a12.54,12.54,0,0,0,5.11-1Z"/><path class="cls-7" d="M136,69.62C97.68,84.1,71.08,111,54.45,148.32"/><polygon class="cls-8" points="51.27 142.7 55.17 146.76 60.81 146.76 51.22 156.04 51.27 142.7"/><path class="cls-9" d="M205.36,67.62c38.35,14.48,65,41.34,81.58,78.71"/><polygon class="cls-10" points="280.59 144.76 286.22 144.76 290.13 140.7 290.18 154.04 280.59 144.76"/><path class="cls-11" d="M335.36,208.69c42.39,14,68.1,52.18,82.56,101.78"/><polygon class="cls-12" points="411.83 308.09 417.42 308.81 421.82 305.3 420.13 318.53 411.83 308.09"/><path class="cls-11" d="M377.75,349.25c-42.39-14-68.1-52.18-82.56-101.78"/><polygon class="cls-12" points="301.27 249.85 295.68 249.13 291.28 252.65 292.96 239.41 301.27 249.85"/></g></g></svg>